<svg width="161" height="43" viewBox="0 0 161 43" fill="none" xmlns="http://www.w3.org/2000/svg">
<rect x="2.06936" y="1.32119" width="39.854" height="39.854" rx="19.927" stroke="url(#paint0_linear_83_38)" stroke-width="2.62774"/>
<path d="M27.2518 10.8364H17.9928C16.0578 10.8364 14.4891 12.4051 14.4891 14.3401V18.3395C14.4891 20.2745 16.0578 21.8432 17.9928 21.8432H26.1569C28.092 21.8432 29.6606 23.4118 29.6606 25.3468V27.9244C29.6606 29.8336 28.1319 31.3914 26.223 31.4274L13.8942 31.66" stroke="url(#paint1_linear_83_38)" stroke-width="2.62774"/>
<path d="M20.1248 31.065C20.1248 31.065 20.1248 24.7566 20.1248 18.2734M20.1248 18.2734C20.1248 15.6932 20.1248 13.0854 20.1248 10.8364H26.4379C28.3729 10.8364 29.9416 12.4051 29.9416 14.3401V14.7698C29.9416 16.7048 28.3729 18.2734 26.4379 18.2734H20.1248Z" stroke="url(#paint2_linear_83_38)" stroke-width="2.62774"/>
<path d="M50.6227 22.9963V10.5233H53.6183C56.8767 10.5233 57.9804 11.0489 57.9804 14.7803V19.2299C57.9804 21.5949 57.2796 22.9963 53.6183 22.9963H50.6227ZM53.5307 12.3102V21.2095C54.9497 21.2095 55.0723 20.6664 55.0723 19.4752V14.3423C55.0723 12.6781 55.0023 12.3102 53.5307 12.3102ZM61.6569 13.2562V20.2635C61.6569 20.7715 61.8145 21.2445 62.4277 21.2445C63.0408 21.2445 63.1985 20.7715 63.1985 20.2635V13.2562C63.1985 12.7482 63.0408 12.2752 62.4277 12.2752C61.8145 12.2752 61.6569 12.7482 61.6569 13.2562ZM66.1065 13.9219V19.5978C66.1065 22.4533 64.3547 23.2416 62.4277 23.2416C60.5007 23.2416 58.7488 22.4533 58.7488 19.5978V13.9219C58.7488 11.0664 60.5007 10.2781 62.4277 10.2781C64.3547 10.2781 66.1065 11.0664 66.1065 13.9219ZM72.9013 22.9963H66.84V10.5233H69.748V21.1044H72.9013V22.9963ZM79.3851 22.9963H73.3238V10.5233H76.2318V21.1044H79.3851V22.9963ZM82.8908 18.0387H83.9419L83.4338 12.4854H83.3988L82.8908 18.0387ZM81.7696 10.5233H85.7638L87.3754 22.9963H84.4849L84.1521 19.9306H82.5754L82.1025 22.9963H79.6499L81.7696 10.5233ZM90.8417 22.9963H87.9337V10.5233H90.8592C93.6271 10.5233 95.2738 10.8036 95.2738 13.4314C95.2738 14.9905 94.6257 16.0066 93.049 16.2693V16.3044C94.4505 16.3394 95.2738 16.865 95.2738 18.6518V21.262C95.2738 21.7525 95.3614 22.4883 95.7118 22.9963H92.7863C92.4359 22.4883 92.3658 21.7525 92.3658 21.262V18.6168C92.3658 17.7409 91.8403 17.3029 91.3147 17.3029H90.8417V22.9963ZM90.8417 12.3102V15.516C92.1556 15.516 92.3658 15.0781 92.3658 13.9044C92.3658 12.7482 92.1731 12.3102 90.8417 12.3102ZM103.075 12.3102V16.392H103.53C104.546 16.392 104.616 15.8314 104.616 14.3598C104.616 12.8883 104.546 12.3102 103.53 12.3102H103.075ZM103.075 22.9963H100.167V10.5233H103.723C106.035 10.5233 107.524 11.0489 107.524 13.2036V15.481C107.524 17.3555 105.86 18.1788 104.143 18.1788H103.075V22.9963ZM111.166 22.9963H108.258V10.5233H111.183C113.951 10.5233 115.598 10.8036 115.598 13.4314C115.598 14.9905 114.95 16.0066 113.373 16.2693V16.3044C114.774 16.3394 115.598 16.865 115.598 18.6518V21.262C115.598 21.7525 115.685 22.4883 116.036 22.9963H113.11C112.76 22.4883 112.69 21.7525 112.69 21.262V18.6168C112.69 17.7409 112.164 17.3029 111.639 17.3029H111.166V22.9963ZM111.166 12.3102V15.516C112.48 15.516 112.69 15.0781 112.69 13.9044C112.69 12.7482 112.497 12.3102 111.166 12.3102ZM119.327 13.2562V20.2635C119.327 20.7715 119.484 21.2445 120.098 21.2445C120.711 21.2445 120.868 20.7715 120.868 20.2635V13.2562C120.868 12.7482 120.711 12.2752 120.098 12.2752C119.484 12.2752 119.327 12.7482 119.327 13.2562ZM123.776 13.9219V19.5978C123.776 22.4533 122.025 23.2416 120.098 23.2416C118.171 23.2416 116.419 22.4533 116.419 19.5978V13.9219C116.419 11.0664 118.171 10.2781 120.098 10.2781C122.025 10.2781 123.776 11.0664 123.776 13.9219ZM126.857 12.3452V22.9963H124.527V10.5233H128.802L130.028 19.3876H130.063L131.289 10.5233H135.476V22.9963H132.849V12.3452H132.814L131.132 22.9963H128.574L126.892 12.3452H126.857ZM139.137 12.3102V16.392H139.593C140.609 16.392 140.679 15.8314 140.679 14.3598C140.679 12.8883 140.609 12.3102 139.593 12.3102H139.137ZM139.137 22.9963H136.229V10.5233H139.786C142.098 10.5233 143.587 11.0489 143.587 13.2036V15.481C143.587 17.3555 141.923 18.1788 140.206 18.1788H139.137V22.9963ZM146.248 12.4153H144.215V10.5233H151.188V12.4153H149.156V22.9963H146.248V12.4153ZM159.172 14.9905H156.264V13.2387C156.264 12.6255 156.071 12.2752 155.493 12.2752C154.863 12.2752 154.723 12.6255 154.723 13.2387C154.723 15.3409 159.172 15.954 159.172 19.808C159.172 22.1555 157.911 23.2416 155.476 23.2416C153.619 23.2416 151.815 22.6109 151.815 20.4562V18.1438H154.723V20.2985C154.723 21.0343 154.95 21.2445 155.493 21.2445C155.966 21.2445 156.264 21.0343 156.264 20.2985C156.264 17.4781 151.815 17.4255 151.815 13.3963C151.815 11.1365 153.304 10.2781 155.546 10.2781C157.508 10.2781 159.172 10.9438 159.172 13.0285V14.9905Z" fill="#F7FFF7"/>
<path d="M64.4868 34.5H62.6802V29.4038H64.5017C65.0143 29.4038 65.4556 29.5058 65.8256 29.7099C66.1955 29.9122 66.48 30.2034 66.6791 30.5833C66.8798 30.9632 66.9802 31.4177 66.9802 31.9469C66.9802 32.4778 66.8798 32.934 66.6791 33.3155C66.48 33.6971 66.1938 33.9899 65.8206 34.1939C65.449 34.398 65.0044 34.5 64.4868 34.5ZM63.7577 33.5768H64.442C64.7605 33.5768 65.0284 33.5204 65.2458 33.4076C65.4647 33.2931 65.629 33.1165 65.7385 32.8776C65.8496 32.637 65.9052 32.3268 65.9052 31.9469C65.9052 31.5703 65.8496 31.2626 65.7385 31.0237C65.629 30.7848 65.4656 30.609 65.2483 30.4962C65.0309 30.3834 64.763 30.327 64.4445 30.327H63.7577V33.5768ZM72.4615 31.9519C72.4615 32.5076 72.3561 32.9804 72.1454 33.3703C71.9364 33.7601 71.6511 34.0579 71.2894 34.2636C70.9294 34.4677 70.5247 34.5697 70.0751 34.5697C69.6222 34.5697 69.2158 34.4668 68.8558 34.2611C68.4958 34.0554 68.2113 33.7576 68.0023 33.3678C67.7933 32.9779 67.6887 32.506 67.6887 31.9519C67.6887 31.3962 67.7933 30.9234 68.0023 30.5335C68.2113 30.1437 68.4958 29.8467 68.8558 29.6427C69.2158 29.437 69.6222 29.3341 70.0751 29.3341C70.5247 29.3341 70.9294 29.437 71.2894 29.6427C71.6511 29.8467 71.9364 30.1437 72.1454 30.5335C72.3561 30.9234 72.4615 31.3962 72.4615 31.9519ZM71.3691 31.9519C71.3691 31.5919 71.3151 31.2883 71.2073 31.0411C71.1011 30.794 70.951 30.6065 70.7569 30.4788C70.5628 30.351 70.3356 30.2872 70.0751 30.2872C69.8147 30.2872 69.5874 30.351 69.3933 30.4788C69.1992 30.6065 69.0482 30.794 68.9404 31.0411C68.8342 31.2883 68.7811 31.5919 68.7811 31.9519C68.7811 32.3119 68.8342 32.6155 68.9404 32.8626C69.0482 33.1098 69.1992 33.2973 69.3933 33.425C69.5874 33.5528 69.8147 33.6166 70.0751 33.6166C70.3356 33.6166 70.5628 33.5528 70.7569 33.425C70.951 33.2973 71.1011 33.1098 71.2073 32.8626C71.3151 32.6155 71.3691 32.3119 71.3691 31.9519ZM73.2596 34.5V29.4038H74.3371V33.6116H76.5219V34.5H73.2596ZM77.2354 34.5V29.4038H78.3129V33.6116H80.4977V34.5H77.2354ZM82.2197 34.5H81.0651L82.8244 29.4038H84.2129L85.9697 34.5H84.8151L83.5385 30.5683H83.4987L82.2197 34.5ZM82.1475 32.4968H84.8748V33.3379H82.1475V32.4968ZM86.5831 34.5V29.4038H88.5937C88.9786 29.4038 89.307 29.4726 89.5791 29.6103C89.8528 29.7464 90.061 29.9396 90.2037 30.1901C90.348 30.439 90.4202 30.7318 90.4202 31.0685C90.4202 31.4069 90.3472 31.6981 90.2012 31.9419C90.0552 32.1841 89.8437 32.3699 89.5666 32.4993C89.2913 32.6287 88.9578 32.6934 88.5663 32.6934H87.2201V31.8275H88.3921C88.5978 31.8275 88.7687 31.7993 88.9047 31.7429C89.0408 31.6865 89.142 31.6019 89.2083 31.4891C89.2763 31.3762 89.3103 31.2361 89.3103 31.0685C89.3103 30.8993 89.2763 30.7566 89.2083 30.6405C89.142 30.5244 89.0399 30.4365 88.9022 30.3767C88.7662 30.3154 88.5945 30.2847 88.3871 30.2847H87.6605V34.5H86.5831ZM89.3352 32.1808L90.6018 34.5H89.4124L88.1731 32.1808H89.3352ZM92.2591 29.4038V34.5H91.1816V29.4038H92.2591ZM93.0908 34.5V33.8605L95.634 30.2921H93.0858V29.4038H96.9876V30.0433L94.442 33.6116H96.9926V34.5H93.0908ZM97.8194 34.5V29.4038H101.253V30.2921H98.8969V31.5065H101.077V32.3948H98.8969V33.6116H101.263V34.5H97.8194ZM103.433 29.4038H104.64L105.802 31.5985H105.852L107.014 29.4038H108.221L106.362 32.6984V34.5H105.292V32.6984L103.433 29.4038ZM113.185 31.9519C113.185 32.5076 113.079 32.9804 112.869 33.3703C112.66 33.7601 112.374 34.0579 112.013 34.2636C111.653 34.4677 111.248 34.5697 110.798 34.5697C110.345 34.5697 109.939 34.4668 109.579 34.2611C109.219 34.0554 108.934 33.7576 108.725 33.3678C108.516 32.9779 108.412 32.506 108.412 31.9519C108.412 31.3962 108.516 30.9234 108.725 30.5335C108.934 30.1437 109.219 29.8467 109.579 29.6427C109.939 29.437 110.345 29.3341 110.798 29.3341C111.248 29.3341 111.653 29.437 112.013 29.6427C112.374 29.8467 112.66 30.1437 112.869 30.5335C113.079 30.9234 113.185 31.3962 113.185 31.9519ZM112.092 31.9519C112.092 31.5919 112.038 31.2883 111.93 31.0411C111.824 30.794 111.674 30.6065 111.48 30.4788C111.286 30.351 111.059 30.2872 110.798 30.2872C110.538 30.2872 110.31 30.351 110.116 30.4788C109.922 30.6065 109.771 30.794 109.663 31.0411C109.557 31.2883 109.504 31.5919 109.504 31.9519C109.504 32.3119 109.557 32.6155 109.663 32.8626C109.771 33.1098 109.922 33.2973 110.116 33.425C110.31 33.5528 110.538 33.6166 110.798 33.6166C111.059 33.6166 111.286 33.5528 111.48 33.425C111.674 33.2973 111.824 33.1098 111.93 32.8626C112.038 32.6155 112.092 32.3119 112.092 31.9519ZM117.131 29.4038H118.208V32.7133C118.208 33.0849 118.119 33.4101 117.942 33.6888C117.766 33.9675 117.52 34.1848 117.203 34.3407C116.886 34.495 116.517 34.5722 116.095 34.5722C115.672 34.5722 115.302 34.495 114.986 34.3407C114.669 34.1848 114.422 33.9675 114.246 33.6888C114.071 33.4101 113.983 33.0849 113.983 32.7133V29.4038H115.06V32.6213C115.06 32.8154 115.102 32.9879 115.187 33.1389C115.273 33.2898 115.394 33.4084 115.55 33.4947C115.706 33.581 115.888 33.6241 116.095 33.6241C116.304 33.6241 116.486 33.581 116.64 33.4947C116.796 33.4084 116.917 33.2898 117.001 33.1389C117.087 32.9879 117.131 32.8154 117.131 32.6213V29.4038ZM119.094 34.5V29.4038H121.105C121.49 29.4038 121.818 29.4726 122.09 29.6103C122.364 29.7464 122.572 29.9396 122.715 30.1901C122.859 30.439 122.932 30.7318 122.932 31.0685C122.932 31.4069 122.859 31.6981 122.713 31.9419C122.567 32.1841 122.355 32.3699 122.078 32.4993C121.803 32.6287 121.469 32.6934 121.078 32.6934H119.731V31.8275H120.904C121.109 31.8275 121.28 31.7993 121.416 31.7429C121.552 31.6865 121.653 31.6019 121.72 31.4891C121.788 31.3762 121.822 31.2361 121.822 31.0685C121.822 30.8993 121.788 30.7566 121.72 30.6405C121.653 30.5244 121.551 30.4365 121.414 30.3767C121.278 30.3154 121.106 30.2847 120.899 30.2847H120.172V34.5H119.094ZM121.847 32.1808L123.113 34.5H121.924L120.685 32.1808H121.847ZM125.315 34.5V29.4038H127.325C127.712 29.4038 128.041 29.4776 128.313 29.6252C128.585 29.7712 128.793 29.9745 128.935 30.2349C129.08 30.4937 129.152 30.7923 129.152 31.1307C129.152 31.4691 129.079 31.7678 128.933 32.0265C128.787 32.2853 128.575 32.4869 128.298 32.6312C128.023 32.7755 127.69 32.8477 127.298 32.8477H126.017V31.9842H127.124C127.331 31.9842 127.502 31.9486 127.636 31.8772C127.773 31.8042 127.874 31.7039 127.94 31.5761C128.008 31.4467 128.042 31.2983 128.042 31.1307C128.042 30.9615 128.008 30.8139 127.94 30.6878C127.874 30.5601 127.773 30.4613 127.636 30.3917C127.5 30.3203 127.328 30.2847 127.119 30.2847H126.392V34.5H125.315ZM129.852 34.5V29.4038H131.862C132.247 29.4038 132.576 29.4726 132.848 29.6103C133.122 29.7464 133.33 29.9396 133.472 30.1901C133.617 30.439 133.689 30.7318 133.689 31.0685C133.689 31.4069 133.616 31.6981 133.47 31.9419C133.324 32.1841 133.112 32.3699 132.835 32.4993C132.56 32.6287 132.227 32.6934 131.835 32.6934H130.489V31.8275H131.661C131.867 31.8275 132.037 31.7993 132.173 31.7429C132.309 31.6865 132.411 31.6019 132.477 31.4891C132.545 31.3762 132.579 31.2361 132.579 31.0685C132.579 30.8993 132.545 30.7566 132.477 30.6405C132.411 30.5244 132.309 30.4365 132.171 30.3767C132.035 30.3154 131.863 30.2847 131.656 30.2847H130.929V34.5H129.852ZM132.604 32.1808L133.871 34.5H132.681L131.442 32.1808H132.604ZM139.133 31.9519C139.133 32.5076 139.028 32.9804 138.817 33.3703C138.608 33.7601 138.323 34.0579 137.961 34.2636C137.601 34.4677 137.197 34.5697 136.747 34.5697C136.294 34.5697 135.888 34.4668 135.528 34.2611C135.168 34.0554 134.883 33.7576 134.674 33.3678C134.465 32.9779 134.361 32.506 134.361 31.9519C134.361 31.3962 134.465 30.9234 134.674 30.5335C134.883 30.1437 135.168 29.8467 135.528 29.6427C135.888 29.437 136.294 29.3341 136.747 29.3341C137.197 29.3341 137.601 29.437 137.961 29.6427C138.323 29.8467 138.608 30.1437 138.817 30.5335C139.028 30.9234 139.133 31.3962 139.133 31.9519ZM138.041 31.9519C138.041 31.5919 137.987 31.2883 137.879 31.0411C137.773 30.794 137.623 30.6065 137.429 30.4788C137.235 30.351 137.008 30.2872 136.747 30.2872C136.487 30.2872 136.259 30.351 136.065 30.4788C135.871 30.6065 135.72 30.794 135.612 31.0411C135.506 31.2883 135.453 31.5919 135.453 31.9519C135.453 32.3119 135.506 32.6155 135.612 32.8626C135.72 33.1098 135.871 33.2973 136.065 33.425C136.259 33.5528 136.487 33.6166 136.747 33.6166C137.008 33.6166 137.235 33.5528 137.429 33.425C137.623 33.2973 137.773 33.1098 137.879 32.8626C137.987 32.6155 138.041 32.3119 138.041 31.9519ZM139.932 29.4038H141.26L142.664 32.8278H142.724L144.127 29.4038H145.456V34.5H144.411V31.183H144.368L143.05 34.4751H142.338L141.019 31.1705H140.977V34.5H139.932V29.4038ZM146.344 34.5V29.4038H148.354C148.741 29.4038 149.07 29.4776 149.342 29.6252C149.614 29.7712 149.821 29.9745 149.964 30.2349C150.108 30.4937 150.181 30.7923 150.181 31.1307C150.181 31.4691 150.108 31.7678 149.962 32.0265C149.816 32.2853 149.604 32.4869 149.327 32.6312C149.052 32.7755 148.718 32.8477 148.327 32.8477H147.045V31.9842H148.153C148.36 31.9842 148.531 31.9486 148.665 31.8772C148.801 31.8042 148.902 31.7039 148.969 31.5761C149.037 31.4467 149.071 31.2983 149.071 31.1307C149.071 30.9615 149.037 30.8139 148.969 30.6878C148.902 30.5601 148.801 30.4613 148.665 30.3917C148.529 30.3203 148.357 30.2847 148.148 30.2847H147.421V34.5H146.344ZM150.686 30.2921V29.4038H154.872V30.2921H153.312V34.5H152.247V30.2921H150.686ZM158.326 30.8694C158.306 30.6687 158.22 30.5128 158.069 30.4016C157.918 30.2905 157.714 30.2349 157.455 30.2349C157.279 30.2349 157.131 30.2598 157.009 30.3096C156.888 30.3577 156.795 30.4249 156.731 30.5111C156.668 30.5974 156.636 30.6953 156.636 30.8047C156.633 30.896 156.652 30.9756 156.693 31.0436C156.737 31.1116 156.795 31.1705 156.87 31.2203C156.945 31.2684 157.031 31.3107 157.129 31.3472C157.227 31.3821 157.331 31.4119 157.442 31.4368L157.9 31.5463C158.123 31.5961 158.327 31.6624 158.512 31.7454C158.698 31.8283 158.859 31.9303 158.995 32.0514C159.131 32.1725 159.237 32.3152 159.311 32.4794C159.387 32.6437 159.426 32.832 159.428 33.0443C159.426 33.3562 159.347 33.6266 159.189 33.8555C159.033 34.0828 158.808 34.2595 158.512 34.3855C158.219 34.51 157.865 34.5722 157.45 34.5722C157.038 34.5722 156.68 34.5091 156.375 34.383C156.071 34.257 155.834 34.0703 155.663 33.8232C155.494 33.5743 155.405 33.2666 155.397 32.9H156.44C156.451 33.0708 156.5 33.2135 156.586 33.328C156.674 33.4408 156.791 33.5262 156.937 33.5843C157.085 33.6407 157.252 33.6689 157.437 33.6689C157.62 33.6689 157.778 33.6423 157.913 33.5893C158.049 33.5362 158.154 33.4623 158.229 33.3678C158.303 33.2732 158.341 33.1646 158.341 33.0418C158.341 32.9273 158.307 32.8311 158.239 32.7532C158.172 32.6752 158.074 32.6088 157.945 32.5541C157.817 32.4993 157.661 32.4496 157.475 32.4048L156.92 32.2654C156.49 32.1609 156.151 31.9975 155.902 31.7752C155.653 31.5529 155.53 31.2535 155.531 30.8769C155.53 30.5683 155.612 30.2988 155.778 30.0682C155.945 29.8376 156.175 29.6576 156.467 29.5282C156.759 29.3988 157.091 29.3341 157.462 29.3341C157.841 29.3341 158.171 29.3988 158.453 29.5282C158.736 29.6576 158.957 29.8376 159.115 30.0682C159.272 30.2988 159.353 30.5659 159.358 30.8694H158.326Z" fill="#44C151"/>
<defs>
<linearGradient id="paint0_linear_83_38" x1="21.9964" y1="0.00732422" x2="21.9964" y2="42.4891" gradientUnits="userSpaceOnUse">
<stop stop-color="#205B26"/>
<stop offset="1" stop-color="#44C151"/>
</linearGradient>
<linearGradient id="paint1_linear_83_38" x1="21.7774" y1="10.8364" x2="21.7774" y2="31.66" gradientUnits="userSpaceOnUse">
<stop stop-color="#44C151"/>
<stop offset="1" stop-color="#205B26"/>
</linearGradient>
<linearGradient id="paint2_linear_83_38" x1="25.0332" y1="10.8364" x2="25.0332" y2="31.065" gradientUnits="userSpaceOnUse">
<stop stop-color="#44C151"/>
<stop offset="1" stop-color="#205B26"/>
</linearGradient>
</defs>
</svg>
